<svg id="Layer_1" enable-background="new 0 0 511.723 511.723" height="512" viewBox="0 0 511.723 511.723" width="512" xmlns="http://www.w3.org/2000/svg"><path d="m269.747 139.991c-17.778-56.208-42.803-98.17-76.502-128.282-6.59-5.888-16.705-5.318-22.592 1.271-5.888 6.589-5.319 16.704 1.27 22.592 29.298 26.178 51.316 63.491 67.314 114.07 2.658 8.404 11.634 13.101 20.08 10.43 8.425-2.665 13.095-11.656 10.43-20.081z" fill="#c69a85"/><path d="m462.109 206.718c-29.567-65.856-102.866-97.64-169.399-77.871-24.098 7.161-49.57 7.161-73.668 0-25.585-7.601-52.798-7.751-78.694-.431-84.903 23.997-127.36 118.868-88.946 198.116l57.426 118.472c20.183 41.638 61.943 66.715 106.315 66.713 29.488 0 33.545-8.868 49.188-4.492 0 .103 14.943 4.492 32.276 4.492 44.368-.002 86.135-25.079 106.315-66.713l57.426-118.472c18.329-37.811 18.97-81.482 1.761-119.814z" fill="#fc93a0"/><path d="m198.231 415.12c-31.738 21.074-62.891 27.411-91.686 25.175l2.282 4.708c24.964 51.503 83.155 77.892 138.592 62.223 8.805-2.48 16.912-.167 16.912 0 55.553 15.701 113.68-10.828 138.592-62.223l7.833-16.159c-46.673-31.205-130.037-68.496-212.525-13.724z" fill="#e88793"/><path d="m455.058 337.447 5.291-10.915c18.328-37.811 18.969-81.481 1.76-119.814-29.567-65.856-102.866-97.64-169.399-77.871-24.098 7.161-49.57 7.161-73.668 0-95.545-28.385-191.658 49.582-181.084 150.586 40.988 1.254 101.953 10.824 181.134 44.367 95.915 40.632 181.066 36.208 235.966 13.647z" fill="#fda5b7"/><path d="m353.192 183.228c25.038-19.826 53.754-22.714 80.272-18.275-36.569-36.892-90.907-50.918-140.755-36.106-24.098 7.161-49.57 7.161-73.668 0-73.631-21.875-153.654 19.507-176.125 96.106 107.69-.004 265.617-6.361 310.276-41.725z" fill="#f7bfcc"/><path d="m370.844 11.628c-2.088-4.389-6.058-7.592-10.789-8.704-86.157-20.246-158.214 68.438-120.012 148.764 2.088 4.389 6.058 7.592 10.789 8.704 86.16 20.248 158.214-68.438 120.012-148.764z" fill="#91c656"/><path d="m229.953 99.861c45.307-12.477 79.798-42.154 151.081-46.893-.573-14.283-4.008-28.342-10.189-41.34-2.088-4.389-6.058-7.592-10.789-8.704-64.15-15.074-126.279 31.437-130.103 96.937z" fill="#9bd65e"/></svg>