<svg id="Layer_1" enable-background="new 0 0 511.495 511.495" height="512" viewBox="0 0 511.495 511.495" width="512" xmlns="http://www.w3.org/2000/svg"><path d="m392.911 5.521c-3.792-4.376-9.653-6.36-15.323-5.191-116.044 23.936-201.44 122.592-210.825 241.208-11.307 142.929 175.19 205.247 250.616 85.286 62.665-99.673 54.147-230.595-24.468-321.303z" fill="#91c656"/><path d="m344.745 241.538c-9.342-118.064-94.215-217.155-210.825-241.208-5.669-1.168-11.53.815-15.323 5.191-77.9 89.882-87.721 220.696-24.468 321.302 75.527 120.122 261.893 57.263 250.616-85.285z" fill="#aced70"/><path d="m344.348 240.225c-1.997-22.485-6.878-45.196-14.814-67.407-56.978 11.039-119.722 33.25-143.635 77.941-17.617 32.925-63.652 38.031-114.885 31.298 18.969 47.605 47.093 87.233 96.372 102.442 85.846 26.496 186.29-39.222 176.962-144.274z" fill="#9bd65e"/><path d="m274.526 80.029c-37.822-41.092-87.397-68.724-140.606-79.699-5.669-1.168-11.53.815-15.323 5.191-42.226 48.721-66.555 112.52-65.946 179.455 23.871-2.791 51.685-14.822 82.391-43.579 41.601-38.961 93.123-55.464 139.484-61.368z" fill="#c8f29c"/><path d="m419.743 322.985c60.722-100.328 49.957-228.863-26.832-317.464-3.792-4.376-9.653-6.36-15.323-5.191-15.624 3.223-30.896 7.879-45.625 13.861 24.043 21.558 60.981 68.587 53.193 149.946-6.215 64.922 11.69 124.589 34.587 158.848z" fill="#9bd65e"/><path d="m221.666 215.981 18.228-51.591c2.944-8.332-1.424-17.472-9.756-20.416-8.334-2.945-17.473 1.424-20.416 9.756l-6.315 17.874c-9.22-20.715-19.427-41.479-30.607-62.231-4.19-7.779-13.894-10.688-21.674-6.498-7.78 4.191-10.688 13.895-6.498 21.674 26.447 49.093 47.24 98.148 62.055 146.336l-33.63-11.615c-8.351-2.884-17.462 1.547-20.347 9.9-2.885 8.352 1.548 17.462 9.9 20.347l54.414 18.794c14.755 60.232 20.823 122.845 15.769 185.905-.706 8.809 5.862 16.521 14.67 17.227 8.779.709 16.519-5.839 17.227-14.67 7.74-96.553-8.917-190.525-43.02-280.792z" fill="#77a042"/></svg>